<mxfile host="" modified="2021-02-08T16:48:43.024Z" agent="5.0 (Windows NT 6.2; Win64; x64) AppleWebKit/537.36 (KHTML, like Gecko) Chrome/84.0.4147.105 Safari/537.36" etag="XaV2fQ_xR3XUhz8hzm7q" version="13.7.9" type="embed"><diagram id="pmXZmnefyjpY_t9wlNmb" name="Page-1"><mxGraphModel dx="205" dy="158" grid="1" gridSize="10" guides="1" tooltips="1" connect="1" arrows="1" fold="1" page="1" pageScale="1" pageWidth="583" pageHeight="413" math="0" shadow="0"><root><mxCell id="0"/><mxCell id="1" parent="0"/><mxCell id="nPvJKjaR9BYKqQwj7M4w-1" value="" style="verticalLabelPosition=bottom;html=1;verticalAlign=top;align=center;shape=mxgraph.floorplan.wall;fillColor=#000000;rotation=-45;" parent="1" vertex="1"><mxGeometry x="50" y="50" width="100" height="10" as="geometry"/></mxCell><mxCell id="nPvJKjaR9BYKqQwj7M4w-6" value="" style="verticalLabelPosition=bottom;html=1;verticalAlign=top;align=center;shape=mxgraph.floorplan.wall;fillColor=#000000;rotation=-45;direction=south;" parent="1" vertex="1"><mxGeometry x="200" y="5" width="10" height="100" as="geometry"/></mxCell><mxCell id="3" value="" style="rounded=0;whiteSpace=wrap;html=1;" vertex="1" parent="1"><mxGeometry x="133" y="16" width="5" height="5" as="geometry"/></mxCell></root></mxGraphModel></diagram></mxfile>